<svg xmlns="http://www.w3.org/2000/svg" xmlns:svg="http://www.w3.org/2000/svg" id="svg19" width="203.667" height="57.6" class="st4" color-interpolation-filters="sRGB" version="1.1" viewBox="0 0 152.75 43.2" xml:space="preserve"><metadata id="metadata25"/><style id="style2" type="text/css">.st4{fill:none;fill-rule:evenodd;font-size:12px;overflow:visible;stroke-linecap:square;stroke-miterlimit:3}</style><g id="g17"><title id="title4">Zeichenblatt-1</title><g id="shape1-1" transform="translate(0.375,-11.6003)"><title id="title6">Tabelle.1</title><desc id="desc8">othermo</desc><path style="fill:none;stroke:none;stroke-width:.75;stroke-linecap:round;stroke-linejoin:round" id="rect10" d="m 0,23.200199 h 152 v 20 H 0 Z"/><g style="font-size:36px;font-family:Lato;fill:#c00000" id="text14" aria-label="othermo"><path style="font-size:36px;font-family:Lato;fill:#c00000" id="path17" d="m 18.454,25.478 q 1.998,0 3.6,0.666 1.602,0.666 2.736,1.89 1.134,1.224 1.728,2.97 0.612,1.728 0.612,3.87 0,2.16 -0.612,3.888 -0.594,1.728 -1.728,2.952 -1.134,1.224 -2.736,1.89 -1.602,0.648 -3.6,0.648 -2.016,0 -3.636,-0.648 -1.602,-0.666 -2.736,-1.89 -1.134,-1.224 -1.746,-2.952 -0.5940005,-1.728 -0.5940005,-3.888 0,-2.142 0.5940005,-3.87 0.612,-1.746 1.746,-2.97 1.134,-1.224 2.736,-1.89 1.62,-0.666 3.636,-0.666 z m 0,16.272 q 2.7,0 4.032,-1.8 1.332,-1.818 1.332,-5.058 0,-3.258 -1.332,-5.076 -1.332,-1.818 -4.032,-1.818 -1.368,0 -2.394,0.468 -1.008,0.468 -1.692,1.35 -0.666,0.882 -1.008,2.178 -0.324,1.278 -0.324,2.898 0,3.24 1.332,5.058 1.35,1.8 4.086,1.8 z"/><path style="font-size:36px;fill:#000" id="path19" d="m 36.756625,44.288 q -2.16,0 -3.33,-1.206 -1.152,-1.206 -1.152,-3.474 v -11.16 h -2.196 q -0.288,0 -0.486,-0.162 -0.198,-0.18 -0.198,-0.54 v -1.278 l 2.988,-0.378 0.738,-5.634 q 0.054,-0.27 0.234,-0.432 0.198,-0.18 0.504,-0.18 h 1.62 v 6.282 h 5.274 v 2.322 h -5.274 v 10.944 q 0,1.152 0.558,1.71 0.558,0.558 1.44,0.558 0.504,0 0.864,-0.126 0.378,-0.144 0.648,-0.306 0.27,-0.162 0.45,-0.288 0.198,-0.144 0.342,-0.144 0.252,0 0.45,0.306 l 0.936,1.53 q -0.828,0.774 -1.998,1.224 -1.17,0.432 -2.412,0.432 z"/><path style="font-size:36px;fill:#000" id="path21" d="m 47.318125,28.196 q 1.17,-1.242 2.592,-1.98 1.422,-0.738 3.276,-0.738 1.494,0 2.628,0.504 1.152,0.486 1.908,1.404 0.774,0.9 1.17,2.178 0.396,1.278 0.396,2.826 V 44 h -3.222 V 32.39 q 0,-2.07 -0.954,-3.204 -0.936,-1.152 -2.862,-1.152 -1.422,0 -2.664,0.684 -1.224,0.684 -2.268,1.854 V 44 h -3.222 V 17.486 h 3.222 z"/><path style="font-size:36px;fill:#000" id="path23" d="m 76.4095,32.894 q 0,-1.116 -0.324,-2.034 -0.306,-0.936 -0.918,-1.602 -0.594,-0.684 -1.458,-1.044 -0.864,-0.378 -1.962,-0.378 -2.304,0 -3.654,1.35 -1.332,1.332 -1.656,3.708 z m 2.592,8.55 q -0.594,0.72 -1.422,1.26 -0.828,0.522 -1.782,0.864 -0.936,0.342 -1.944,0.504 -1.008,0.18 -1.998,0.18 -1.89,0 -3.492,-0.63 -1.584,-0.648 -2.754,-1.872 -1.152,-1.242 -1.8,-3.06 -0.648,-1.818 -0.648,-4.176 0,-1.908 0.576,-3.564 0.594,-1.656 1.692,-2.862 1.098,-1.224 2.682,-1.908 1.584,-0.702 3.564,-0.702 1.638,0 3.024,0.558 1.404,0.54 2.412,1.584 1.026,1.026 1.602,2.556 0.576,1.512 0.576,3.456 0,0.756 -0.162,1.008 -0.162,0.252 -0.612,0.252 h -12.186 q 0.054,1.728 0.468,3.006 0.432,1.278 1.188,2.142 0.756,0.846 1.8,1.278 1.044,0.414 2.34,0.414 1.206,0 2.07,-0.27 0.882,-0.288 1.512,-0.612 0.63,-0.324 1.044,-0.594 0.432,-0.288 0.738,-0.288 0.396,0 0.612,0.306 z"/><path style="font-size:36px;fill:#000" id="path25" d="m 86.231875,29.42 q 0.864,-1.872 2.124,-2.916 1.26,-1.062 3.078,-1.062 0.576,0 1.098,0.126 0.54,0.126 0.954,0.396 l -0.234,2.394 q -0.108,0.45 -0.54,0.45 -0.252,0 -0.738,-0.108 -0.486,-0.108 -1.098,-0.108 -0.864,0 -1.548,0.252 -0.666,0.252 -1.206,0.756 -0.522,0.486 -0.954,1.224 -0.414,0.72 -0.756,1.656 V 44 h -3.222 V 25.766 h 1.836 q 0.522,0 0.72,0.198 0.198,0.198 0.27,0.684 z"/><path style="font-size:36px;fill:#000" id="path27" d="M 96.268,44 V 25.766 h 1.926 q 0.684,0 0.846,0.666 l 0.234,1.872 q 1.008,-1.242 2.268,-2.034 1.26,-0.792 2.916,-0.792 1.836,0 2.97,1.026 1.152,1.026 1.656,2.772 0.396,-0.99 1.008,-1.71 0.63,-0.72 1.404,-1.188 0.774,-0.468 1.638,-0.684 0.882,-0.216 1.782,-0.216 1.44,0 2.556,0.468 1.134,0.45 1.908,1.332 0.792,0.882 1.206,2.178 Q 121,30.734 121,32.39 V 44 h -3.222 V 32.39 q 0,-2.142 -0.936,-3.24 -0.936,-1.116 -2.7,-1.116 -0.792,0 -1.512,0.288 -0.702,0.27 -1.242,0.81 -0.54,0.54 -0.864,1.368 -0.306,0.81 -0.306,1.89 V 44 h -3.222 V 32.39 q 0,-2.196 -0.882,-3.276 -0.882,-1.08 -2.574,-1.08 -1.188,0 -2.196,0.648 -1.008,0.63 -1.854,1.728 V 44 Z"/><path style="font-size:36px;fill:#000" id="path29" d="m 133.55556,25.478 q 1.998,0 3.6,0.666 1.602,0.666 2.736,1.89 1.134,1.224 1.728,2.97 0.612,1.728 0.612,3.87 0,2.16 -0.612,3.888 -0.594,1.728 -1.728,2.952 -1.134,1.224 -2.736,1.89 -1.602,0.648 -3.6,0.648 -2.016,0 -3.636,-0.648 -1.602,-0.666 -2.736,-1.89 -1.134,-1.224 -1.746,-2.952 -0.594,-1.728 -0.594,-3.888 0,-2.142 0.594,-3.87 0.612,-1.746 1.746,-2.97 1.134,-1.224 2.736,-1.89 1.62,-0.666 3.636,-0.666 z m 0,16.272 q 2.7,0 4.032,-1.8 1.332,-1.818 1.332,-5.058 0,-3.258 -1.332,-5.076 -1.332,-1.818 -4.032,-1.818 -1.368,0 -2.394,0.468 -1.008,0.468 -1.692,1.35 -0.666,0.882 -1.008,2.178 -0.324,1.278 -0.324,2.898 0,3.24 1.332,5.058 1.35,1.8 4.086,1.8 z"/></g></g></g></svg>