<svg xmlns="http://www.w3.org/2000/svg" xmlns:svg="http://www.w3.org/2000/svg" id="Layer_1" width="236.2" height="211.976" x="0" y="0" version="1.1" viewBox="0 0 236.2 211.976" xml:space="preserve"><metadata id="metadata949"/><style id="style906" type="text/css">.st0{fill:#181818}</style><g id="g942" transform="translate(-81.9,-94.023755)"><g id="g922"><path id="path916" d="m 232.8,136.8 -58.3,19.4 c -5.1,1.7 -8.2,1.4 -10.8,0.1 -2.6,-1.3 -4.7,-3.6 -5.7,-6.6 v 0 c -1,-3 -0.7,-6.1 0.6,-8.7 1.3,-2.6 3.6,-4.7 8.7,-6.4 l 58.3,-19.4 c 5.1,-1.7 8.2,-1.4 10.8,-0.1 2.6,1.3 4.7,3.6 5.7,6.6 v 0 c 1,3 0.7,6.1 -0.6,8.7 -1.3,2.6 -3.6,4.7 -8.7,6.4 z" class="st0" style="fill:#181818"/><path id="path918" d="m 232.8,172.8 -58.3,19.4 c -5.1,1.7 -8.2,1.4 -10.8,0.1 -2.6,-1.3 -4.7,-3.6 -5.7,-6.6 v 0 c -1,-3 -0.7,-6.1 0.6,-8.7 1.3,-2.6 3.6,-4.7 8.7,-6.4 l 58.3,-19.4 c 5.1,-1.7 8.2,-1.4 10.8,-0.1 2.6,1.3 4.7,3.6 5.7,6.6 v 0 c 1,3 0.7,6.1 -0.6,8.7 -1.3,2.6 -3.6,4.7 -8.7,6.4 z" class="st0" style="fill:#181818"/><path id="path920" d="m 232.8,208.8 -58.3,19.4 c -5.1,1.7 -8.2,1.4 -10.8,0.1 -2.6,-1.3 -4.7,-3.6 -5.7,-6.6 v 0 c -1,-3 -0.7,-6.1 0.6,-8.7 1.3,-2.6 3.6,-4.7 8.7,-6.4 l 58.3,-19.4 c 5.1,-1.7 8.2,-1.4 10.8,-0.1 2.6,1.3 4.7,3.6 5.7,6.6 v 0 c 1,3 0.7,6.1 -0.6,8.7 -1.3,2.6 -3.6,4.7 -8.7,6.4 z" class="st0" style="fill:#181818"/></g><g id="g940"><polygon id="polygon924" points="109.5 268.2 122.8 268.2 122.8 274.2 109.5 274.2 109.5 279.5 123.5 279.5 123.5 285.3 101.9 285.3 101.9 257.3 123.3 257.3 123.3 263.2 109.5 263.2" class="st0" style="fill:#181818"/><polygon id="polygon926" points="156.5 257.3 164.1 257.3 164.1 285.3 156.5 285.3" class="st0" style="fill:#181818"/><path id="path928" d="m 191.9,258.2 -0.5,6 c -6.1,-3.6 -15.6,-2.4 -15.7,6.9 -0.2,9.3 9.7,10.7 16,7.5 l 0.4,6.1 c -11,3.4 -24.2,-0.1 -24.2,-13.6 0,-13.2 13.3,-16.9 24,-12.9 z" class="st0" style="fill:#181818"/><path id="path930" d="m 214.3,257.8 -0.5,5.8 c -3.8,-2.1 -11.1,-2.2 -11.1,1.1 0,4.9 13,1.4 13,11.9 0,10.3 -12.3,10.5 -20.4,8.1 l 0.6,-6.2 c 5,2.3 12.1,2.9 12.1,-1.2 0,-4.5 -13,-1.9 -13,-11.9 -0.1,-8.2 10.1,-10.4 19.3,-7.6 z" class="st0" style="fill:#181818"/><path id="path932" d="m 237.2,257.8 -0.5,5.8 c -3.8,-2.1 -11.1,-2.2 -11.1,1.1 0,4.9 13,1.4 13,11.9 0,10.3 -12.4,10.5 -20.4,8.1 l 0.6,-6.2 c 5,2.3 12.1,2.9 12.1,-1.2 0,-4.5 -13,-1.9 -13,-11.9 0,-8.2 10.1,-10.4 19.3,-7.6 z" class="st0" style="fill:#181818"/><polygon id="polygon934" points="298.1 257.3 298.1 285.3 289 285.3 279.3 266.9 279.3 285.3 272.2 285.3 272.2 257.3 281.9 257.3 291.1 275.4 291.1 257.3" class="st0" style="fill:#181818"/><path id="path936" d="m 254.7,256.7 c 7.9,0 13.9,4.6 13.9,14.7 0,9.6 -6.1,14.6 -13.9,14.6 -7.9,0 -13.9,-4.8 -13.9,-14.6 0,-10.1 6,-14.7 13.9,-14.7 z m -6.1,14.7 c 0,4.3 1.8,9.1 6.1,9.1 4.3,0 6.1,-4.8 6.1,-9.1 0,-3.9 -1.8,-9.1 -6.1,-9.1 -4.3,0 -6.1,4.8 -6.1,9.1 z" class="st0" style="fill:#181818"/><path id="path938" d="m 136.1,269.1 h 4.2 c 1.9,0 3.6,-1.1 3.6,-3.2 0,-1.8 -1.5,-3.1 -3.4,-3.1 h -4.3 v 6.3 z m -7.3,-11.8 h 13.7 c 3.7,0 8.9,1.6 8.9,7.4 0,3.7 -1.7,5.8 -4.9,6.8 0.2,0 1.8,0.7 2.5,2.8 0,0.1 3.9,10.9 4,10.9 h -8 l -2.9,-8.4 c -0.4,-1.3 -1.4,-2.1 -2.8,-2.1 -1.2,0 -3,-0.1 -3,0 v 10.5 h -7.4 v -27.9 z" class="st0" style="fill:#181818"/></g></g></svg>