<svg xmlns="http://www.w3.org/2000/svg" xmlns:xlink="http://www.w3.org/1999/xlink" viewBox="0 0 550 288"><defs><linearGradient id="bosch-gradient" x1="-1408.752" x2="-1408.353" y1="346.281" y2="346.281" gradientTransform="matrix(0, -723.07397, -723.07397, 0, 250418.98218, -1018279.61572)" gradientUnits="userSpaceOnUse"><stop offset="0" stop-color="#942231"/><stop offset=".153" stop-color="#ca171a"/><stop offset=".206" stop-color="#982e6b"/><stop offset=".324" stop-color="#203b78"/><stop offset=".418" stop-color="#312b6e"/><stop offset=".558" stop-color="#1b62a1"/><stop offset=".656" stop-color="#5bafbf"/><stop offset=".739" stop-color="#078daf"/><stop offset=".887" stop-color="#00a14b"/><stop offset="1" stop-color="#00917d"/></linearGradient><linearGradient id="linear-gradient" x1="-292.52" x2="-291.755" y1="454.887" y2="454.887" gradientTransform="matrix(161.0472, 0, 0, -161.0472, 47079.92736, 73333.9482)" gradientUnits="userSpaceOnUse"><stop offset="0" stop-color="#689f5f"/><stop offset=".142" stop-color="#4e9752"/><stop offset=".303" stop-color="#399147"/><stop offset=".481" stop-color="#2a8c40"/><stop offset=".689" stop-color="#218a3b"/><stop offset="1" stop-color="#1e893a"/></linearGradient><linearGradient id="linear-gradient-2" x1="-299.67" x2="-298.905" y1="456.717" y2="456.717" gradientTransform="matrix(-42.8122, -23.9993, -23.9993, 42.8122, -1845.0315, -26649.9633)" gradientUnits="userSpaceOnUse"><stop offset="0" stop-color="#61b16d"/><stop offset="1" stop-color="#86b856"/></linearGradient><linearGradient id="linear-gradient-3" x1="-292.52" x2="-291.755" y1="454.943" y2="454.943" gradientTransform="matrix(161.0472, 0, 0, -161.0472, 47079.92736, 73367.6982)" gradientUnits="userSpaceOnUse"><stop offset="0" stop-color="#94bd54"/><stop offset=".31" stop-color="#8cbc66"/><stop offset=".678" stop-color="#85bb73"/><stop offset="1" stop-color="#83bb78"/></linearGradient><linearGradient id="linear-gradient-4" x1="-292.846" x2="-292.08" y1="454.687" y2="454.687" gradientTransform="matrix(158.5753, -41.8977, -41.8977, -158.5753, 65460.27396, 59972.6845)" gradientUnits="userSpaceOnUse"><stop offset="0" stop-color="#00a24c"/><stop offset=".267" stop-color="#00a053"/><stop offset=".645" stop-color="#009a65"/><stop offset="1" stop-color="#00937d"/></linearGradient><linearGradient id="linear-gradient-5" x1="-292.52" x2="-291.755" y1="455.015" y2="455.015" gradientTransform="matrix(161.0472, 0, 0, -161.0472, 47079.92736, 73418.1982)" gradientUnits="userSpaceOnUse"><stop offset="0" stop-color="#00b5dd"/><stop offset=".279" stop-color="#00afd6"/><stop offset=".682" stop-color="#009dc3"/><stop offset="1" stop-color="#008baf"/></linearGradient><linearGradient id="linear-gradient-6" x1="-292.838" x2="-292.073" y1="454.772" y2="454.772" gradientTransform="matrix(159.2028, -42.6583, -42.6583, -159.2028, 65993.39743, 60088.7376)" gradientUnits="userSpaceOnUse"><stop offset="0" stop-color="#0099d4"/><stop offset=".222" stop-color="#0f9dd1"/><stop offset=".646" stop-color="#36a7c8"/><stop offset="1" stop-color="#5bb0c0"/></linearGradient><linearGradient id="linear-gradient-7" x1="-295.243" x2="-294.478" y1="456.913" y2="456.913" gradientTransform="matrix(-161.0472, 0, 0, 161.0472, -47454.3348, -73405.85623)" gradientUnits="userSpaceOnUse"><stop offset="0" stop-color="#3d9ac9"/><stop offset="1" stop-color="#1d62a2"/></linearGradient><linearGradient id="linear-gradient-8" x1="-292.52" x2="-291.755" y1="455.141" y2="455.141" gradientTransform="matrix(161.0472, 0, 0, -161.0472, 47079.92736, 73495.6982)" gradientUnits="userSpaceOnUse"><stop offset="0" stop-color="#15438e"/><stop offset=".412" stop-color="#1f579e"/><stop offset="1" stop-color="#317aba"/></linearGradient><linearGradient id="linear-gradient-9" x1="-291.615" x2="-290.85" y1="455.071" y2="455.071" gradientTransform="matrix(106.4336, 17.0208, 17.0208, -106.4336, 23262.10616, 53609.2318)" gradientUnits="userSpaceOnUse"><stop offset="0" stop-color="#312b6e"/><stop offset=".243" stop-color="#312b6e"/><stop offset=".446" stop-color="#2c2e72"/><stop offset=".687" stop-color="#1e377d"/><stop offset=".944" stop-color="#06468f"/><stop offset="1" stop-color="#004a94"/></linearGradient><linearGradient id="linear-gradient-10" x1="-291.666" x2="-290.908" y1="459.909" y2="459.909" gradientTransform="matrix(0, 56.1032, 56.1032, 0, -25770.3862, 16590.7858)" gradientUnits="userSpaceOnUse"><stop offset="0" stop-color="#203b78"/><stop offset=".239" stop-color="#253b79"/><stop offset=".522" stop-color="#333a7d"/><stop offset=".826" stop-color="#4b3a82"/><stop offset="1" stop-color="#5c3986"/></linearGradient><linearGradient id="linear-gradient-11" x1="-296.742" x2="-295.984" y1="450.701" y2="450.701" gradientTransform="matrix(0, -41.4022, -41.4022, 0, 18692.0122, -12003.5038)" gradientUnits="userSpaceOnUse"><stop offset="0" stop-color="#6d368c"/><stop offset=".994" stop-color="#3b4190"/><stop offset="1" stop-color="#3b4190"/></linearGradient><linearGradient id="linear-gradient-12" x1="-291.49" x2="-290.732" y1="460.168" y2="460.168" gradientTransform="matrix(0, 46.8522, 46.8522, 0, -21511.8682, 13926.8338)" gradientUnits="userSpaceOnUse"><stop offset="0" stop-color="#89357f"/><stop offset=".335" stop-color="#89357f"/><stop offset=".711" stop-color="#8d2c59"/><stop offset="1" stop-color="#902641"/></linearGradient><linearGradient id="linear-gradient-13" x1="-291.669" x2="-290.911" y1="460.811" y2="460.811" gradientTransform="matrix(0, 50.6842, 50.6842, 0, -23339.8302, 15051.3268)" xlink:href="#linear-gradient-12"/><linearGradient id="bosch-gradient-2" x1="-1408.752" x2="-1408.353" y1="345.432" y2="345.432" xlink:href="#bosch-gradient"/><linearGradient id="linear-gradient-14" x1="-288.708" x2="-287.943" y1="454.887" y2="454.887" xlink:href="#linear-gradient"/><linearGradient id="linear-gradient-15" x1="-310.582" x2="-309.817" y1="450.6" y2="450.6" xlink:href="#linear-gradient-2"/><linearGradient id="linear-gradient-16" x1="-288.708" x2="-287.943" y1="454.943" y2="454.943" xlink:href="#linear-gradient-3"/><linearGradient id="linear-gradient-17" x1="-289.226" x2="-288.46" y1="453.731" y2="453.731" xlink:href="#linear-gradient-4"/><linearGradient id="linear-gradient-18" x1="-288.708" x2="-287.943" y1="455.015" y2="455.015" xlink:href="#linear-gradient-5"/><linearGradient id="linear-gradient-19" x1="-289.24" x2="-288.474" y1="453.808" y2="453.808" xlink:href="#linear-gradient-6"/><linearGradient id="linear-gradient-20" x1="-299.055" x2="-298.291" y1="456.913" y2="456.913" xlink:href="#linear-gradient-7"/><linearGradient id="linear-gradient-21" x1="-288.708" x2="-287.943" y1="455.141" y2="455.141" xlink:href="#linear-gradient-8"/><linearGradient id="linear-gradient-22" x1="-285.99" x2="-285.225" y1="455.971" y2="455.971" xlink:href="#linear-gradient-9"/><linearGradient id="linear-gradient-23" x1="-291.666" x2="-290.908" y1="470.853" y2="470.853" xlink:href="#linear-gradient-10"/><linearGradient id="linear-gradient-24" x1="-296.742" x2="-295.984" y1="435.871" y2="435.871" xlink:href="#linear-gradient-11"/><linearGradient id="linear-gradient-25" x1="-291.49" x2="-290.732" y1="473.273" y2="473.273" xlink:href="#linear-gradient-12"/><linearGradient id="linear-gradient-26" x1="-291.669" x2="-290.911" y1="472.925" y2="472.925" gradientTransform="matrix(0, 50.6842, 50.6842, 0, -23339.8302, 15051.3268)" xlink:href="#linear-gradient-12"/><linearGradient id="Bosch-Gradient-3" x1="-1231.78" x2="-1231.019" y1="344.259" y2="344.259" gradientTransform="matrix(723.07397, 0, 0, -723.07397, 890732.05322, 248956.63843)" xlink:href="#bosch-gradient"/><linearGradient id="linear-gradient-27" x1="-293.254" x2="-292.489" y1="456.141" y2="456.141" gradientTransform="matrix(0, 306.44489, 306.44489, 0, -139190.23975, 89780.76087)" xlink:href="#linear-gradient"/><linearGradient id="linear-gradient-28" x1="-295.565" x2="-294.8" y1="454.183" y2="454.183" gradientTransform="matrix(45.6665, -81.4643, -81.4643, -45.6665, 51060.4303, -3316.2417)" xlink:href="#linear-gradient-2"/><linearGradient id="linear-gradient-29" x1="-293.254" x2="-292.489" y1="456.205" y2="456.205" gradientTransform="matrix(0, 306.44489, 306.44489, 0, -139254.23975, 89780.76087)" xlink:href="#linear-gradient-3"/><linearGradient id="linear-gradient-30" x1="-293.226" x2="-292.461" y1="456.075" y2="456.075" gradientTransform="matrix(79.7241, 301.74129, 301.74129, -79.7241, -113765.81379, 124754.91852)" xlink:href="#linear-gradient-4"/><linearGradient id="linear-gradient-31" x1="-293.254" x2="-292.489" y1="456.268" y2="456.268" gradientTransform="matrix(0, 306.44489, 306.44489, 0, -139350.73975, 89780.76087)" xlink:href="#linear-gradient-5"/><linearGradient id="linear-gradient-32" x1="-293.21" x2="-292.445" y1="456.151" y2="456.151" gradientTransform="matrix(81.1713, 302.93519, 302.93519, -81.1713, -113988.56713, 125768.76008)" xlink:href="#linear-gradient-6"/><linearGradient id="linear-gradient-33" x1="-294.513" x2="-293.748" y1="455.661" y2="455.661" gradientTransform="matrix(0, -306.4449, -306.4449, 0, 140029.1769, -90102.8126)" xlink:href="#linear-gradient-7"/><linearGradient id="linear-gradient-34" x1="-293.254" x2="-292.489" y1="456.397" y2="456.397" gradientTransform="matrix(0, 306.44489, 306.44489, 0, -139497.73975, 89780.76087)" xlink:href="#linear-gradient-8"/><linearGradient id="linear-gradient-35" x1="-292.99" x2="-292.225" y1="456.739" y2="456.739" gradientTransform="matrix(-32.3877, 202.52459, 202.52459, 32.3877, -101658.87594, 44459.0489)" xlink:href="#linear-gradient-9"/><linearGradient id="linear-gradient-36" x1="-295.262" x2="-294.501" y1="457.805" y2="457.805" gradientTransform="matrix(-106.7547, 0, 0, 106.7547, -31218.6438, -48840.8236)" xlink:href="#linear-gradient-10"/><linearGradient id="linear-gradient-37" x1="-291.878" x2="-291.118" y1="453.546" y2="453.546" gradientTransform="matrix(78.7812, 0, 0, -78.7812, 23191.7078, 35762.8942)" xlink:href="#linear-gradient-11"/><linearGradient id="linear-gradient-38" x1="-295.797" x2="-295.037" y1="457.481" y2="457.481" gradientTransform="matrix(-89.1517, 0, 0, 89.1517, -26150.0738, -40737.1807)" xlink:href="#linear-gradient-12"/><linearGradient id="linear-gradient-39" x1="-295.649" x2="-294.888" y1="458.631" y2="458.631" gradientTransform="matrix(-96.4433, 0, 0, 96.4433, -28289.5412, -44215.8693)" xlink:href="#linear-gradient-12"/><linearGradient id="Bosch-Gradient-4" x1="-1231.78" x2="-1231.019" y1="343.772" y2="343.772" gradientTransform="matrix(723.07397, 0, 0, -723.07397, 890732.05322, 248956.63843)" xlink:href="#bosch-gradient"/><linearGradient id="linear-gradient-40" x1="-292.105" x2="-291.34" y1="456.141" y2="456.141" gradientTransform="matrix(0, 306.44489, 306.44489, 0, -139190.23975, 89780.76087)" xlink:href="#linear-gradient"/><linearGradient id="linear-gradient-41" x1="-298.853" x2="-298.088" y1="452.34" y2="452.34" gradientTransform="matrix(45.6665, -81.4643, -81.4643, -45.6665, 51060.4303, -3316.2417)" xlink:href="#linear-gradient-2"/><linearGradient id="linear-gradient-42" x1="-292.105" x2="-291.34" y1="456.205" y2="456.205" gradientTransform="matrix(0, 306.44489, 306.44489, 0, -139254.23975, 89780.76087)" xlink:href="#linear-gradient-3"/><linearGradient id="linear-gradient-43" x1="-292.136" x2="-291.371" y1="455.787" y2="455.787" gradientTransform="matrix(79.7241, 301.74129, 301.74129, -79.7241, -113765.81379, 124754.91852)" xlink:href="#linear-gradient-4"/><linearGradient id="linear-gradient-44" x1="-292.105" x2="-291.34" y1="456.268" y2="456.268" gradientTransform="matrix(0, 306.44489, 306.44489, 0, -139350.73975, 89780.76087)" xlink:href="#linear-gradient-5"/><linearGradient id="linear-gradient-45" x1="-292.125" x2="-291.361" y1="455.861" y2="455.861" gradientTransform="matrix(81.1713, 302.93519, 302.93519, -81.1713, -113988.56713, 125768.76008)" xlink:href="#linear-gradient-6"/><linearGradient id="linear-gradient-46" x1="-295.662" x2="-294.897" y1="455.661" y2="455.661" gradientTransform="matrix(0, -306.4449, -306.4449, 0, 140029.1769, -90102.8126)" xlink:href="#linear-gradient-7"/><linearGradient id="linear-gradient-47" x1="-292.105" x2="-291.34" y1="456.397" y2="456.397" gradientTransform="matrix(0, 306.44489, 306.44489, 0, -139497.73975, 89780.76087)" xlink:href="#linear-gradient-8"/><linearGradient id="linear-gradient-48" x1="-291.295" x2="-290.53" y1="457.01" y2="457.01" gradientTransform="matrix(-32.3877, 202.52459, 202.52459, 32.3877, -101658.87594, 44459.0489)" xlink:href="#linear-gradient-9"/><linearGradient id="linear-gradient-49" x1="-295.262" x2="-294.501" y1="461.102" y2="461.102" gradientTransform="matrix(-106.7547, 0, 0, 106.7547, -31218.6438, -48840.8236)" xlink:href="#linear-gradient-10"/><linearGradient id="linear-gradient-50" x1="-291.878" x2="-291.118" y1="449.078" y2="449.078" gradientTransform="matrix(78.7812, 0, 0, -78.7812, 23191.7078, 35762.8942)" xlink:href="#linear-gradient-11"/><linearGradient id="linear-gradient-51" x1="-295.797" x2="-295.037" y1="461.429" y2="461.429" gradientTransform="matrix(-89.1517, 0, 0, 89.1517, -26150.0738, -40737.1807)" xlink:href="#linear-gradient-12"/><linearGradient id="linear-gradient-52" x1="-295.649" x2="-294.888" y1="462.281" y2="462.281" gradientTransform="matrix(-96.4433, 0, 0, 96.4433, -28289.5412, -44215.8693)" xlink:href="#linear-gradient-12"/></defs><title/><g transform="translate(52.6,59.237)"><g id="brand-claim-english"><g id="claim-english" fill="#000"><path d="M147.667,117.26074v27.80957h-3.22851V117.26074Z"/><path d="M157.896,124.72852v3.11132a6.49866,6.49866,0,0,1,6.18408-3.46191c4.35644,0,6.729,2.83984,6.729,8.09082v12.60156h-3.22851v-12.835c0-3.501-1.32227-5.05664-4.3169-5.05664A5.06436,5.06436,0,0,0,157.896,132.624v12.44629h-3.228V124.72852Z"/><path d="M178.39355,124.72852l5.44532,17.07421,5.32861-17.07421h3.34473L185.667,145.07031h-3.812l-6.96191-20.34179Z"/><path d="M213.16455,141.8418c-1.8667,2.68359-4.47266,3.57812-7.73975,3.57812-6.45654,0-10.07373-4.23926-10.07373-10.46191,0-6.2627,3.77247-10.58008,9.25684-10.58008,5.40625,0,8.7124,3.8125,8.7124,10.11328V135.541H198.6958c.07764,2.917.73926,4.55078,2.13916,5.834a6.33009,6.33009,0,0,0,4.51172,1.36133,5.95038,5.95038,0,0,0,5.44531-2.79981Zm-3.15039-8.90625c-.42773-4.16211-1.9834-5.87305-5.36719-5.87305-3.22851,0-5.09521,1.90527-5.83448,5.87305Z"/><path d="M222.69336,124.72852v3.11132a6.49743,6.49743,0,0,1,6.18359-3.46191c4.35645,0,6.72852,2.83984,6.72852,8.09082v12.60156h-3.22754v-12.835c0-3.501-1.32227-5.05664-4.31738-5.05664a5.064,5.064,0,0,0-5.36719,5.44531v12.44629h-3.22852V124.72852Z"/><path d="M243.9668,124.72852v-5.29l3.22754-.77735v6.06739h5.13476v2.68359h-5.13476v12.40723c0,1.98339.73925,2.917,2.334,2.917a4.21425,4.21425,0,0,0,2.76172-.97168l1.24414,2.21679a6.20994,6.20994,0,0,1-4.2002,1.43848c-3.30566,0-5.36718-1.90527-5.36718-4.97851v-13.0293h-3.11231v-2.68359Z"/><path d="M274.61426,141.8418c-1.86719,2.68359-4.47266,3.57812-7.74024,3.57812-6.456,0-10.07324-4.23926-10.07324-10.46191,0-6.2627,3.77246-10.58008,9.25684-10.58008,5.40625,0,8.71191,3.8125,8.71191,10.11328V135.541h-14.624c.07812,2.917.73926,4.55078,2.13965,5.834a6.3285,6.3285,0,0,0,4.51172,1.36133,5.95135,5.95135,0,0,0,5.44531-2.79981Zm-3.15039-8.90625c-.42774-4.16211-1.9834-5.87305-5.36719-5.87305-3.22852,0-5.0957,1.90527-5.834,5.87305Z"/><path d="M294.64453,141.80273a7.58346,7.58346,0,0,1-6.72949,3.61719c-5.28906,0-8.71191-4.16113-8.71191-10.61816,0-6.30078,3.46191-10.42383,8.67382-10.42383a7.72375,7.72375,0,0,1,6.76758,3.69531v-12.291h3.22754v29.28808h-3.22754Zm-12.09668-6.80566c0,5.13379,1.94434,7.73926,5.834,7.73926,4.084,0,6.3789-2.83887,6.3789-7.81739,0-4.8623-2.37207-7.85644-6.26172-7.85644C284.68749,127.0625,282.54785,129.94043,282.54785,134.99707Z"/><path d="M318.79688,124.72852v-2.83985c0-4.16113,2.21679-6.53418,6.02832-6.53418a7.11784,7.11784,0,0,1,3.65625.9336l-.81739,2.48925a5.299,5.299,0,0,0-2.68359-.73925c-1.86719,0-2.95606,1.32324-2.95606,3.501v3.18946h4.668v2.68359h-4.668v17.6582h-3.22753v-17.6582h-2.918v-2.68359Z"/><path d="M348.084,134.87988c0,6.14551-4.00585,10.54-9.6455,10.54-5.52344,0-9.56836-4.43359-9.56836-10.501,0-6.1455,4.00586-10.541,9.68457-10.541C344.07813,124.37793,348.084,128.8125,348.084,134.87988Zm-15.86914.07813c0,4.78418,2.41114,7.77832,6.22364,7.77832,3.85058,0,6.30078-3.03321,6.30078-7.81739,0-4.74511-2.4502-7.85644-6.18457-7.85644C334.626,127.0625,332.21484,130.01855,332.21484,134.958Z"/><path d="M356.05664,124.72852v3.2666c1.32227-2.4502,3.07227-3.61719,5.44531-3.61719a6.51069,6.51069,0,0,1,3.30567.81738l-1.32227,2.72266a4.42811,4.42811,0,0,0-2.37207-.62207c-3.15039,0-5.05664,2.52734-5.05664,6.61133v11.16308h-3.22851V124.72852Z"/><path d="M387.52148,144.44824a6.40769,6.40769,0,0,1-3.5791.9336c-2.95508,0-4.93945-1.32325-4.93945-5.36817V115.78223h3.22852v24.5039c0,1.90625,1.01171,2.41114,2.21679,2.41114a3.06263,3.06263,0,0,0,2.02246-.66114Z"/><path d="M395.96094,118.38867a2.13916,2.13916,0,1,1-2.13965-2.13965A2.15792,2.15792,0,0,1,395.96094,118.38867Zm-.4668,6.33985v20.34179h-3.22851V124.72852Z"/><path d="M403.93359,124.72852v-2.83985c0-4.16113,2.2168-6.53418,6.02832-6.53418a7.11779,7.11779,0,0,1,3.65625.9336l-.81738,2.48925a5.299,5.299,0,0,0-2.68359-.73925c-1.86719,0-2.95606,1.32324-2.95606,3.501v3.18946h4.668v2.68359h-4.668v17.6582h-3.22754v-17.6582h-2.918v-2.68359Z"/><path d="M431.89844,141.8418c-1.86719,2.68359-4.47266,3.57812-7.74024,3.57812-6.45605,0-10.07324-4.23926-10.07324-10.46191,0-6.2627,3.77246-10.58008,9.25684-10.58008,5.40625,0,8.71191,3.8125,8.71191,10.11328V135.541h-14.624c.07812,2.917.73926,4.55078,2.13965,5.834a6.32849,6.32849,0,0,0,4.51171,1.36133,5.9504,5.9504,0,0,0,5.44532-2.79981Zm-3.15039-8.90625c-.42774-4.16211-1.9834-5.87305-5.36719-5.87305-3.22852,0-5.0957,1.90527-5.834,5.87305Z"/></g><g id="brand-english-2"><g id="logotype-22" data-name="logotype"><path id="logotype-b-22" d="M185.2,56.28593a13.76635,13.76635,0,0,0,8.8-13c0-11.7-8.3-17.5-19.7-17.5H144.4v63.6h32.5c10,0,19.8-7,19.8-17.7C196.7,58.98592,185.2,56.38593,185.2,56.28593Zm-25.2-17.3h11.6a5.66863,5.66863,0,0,1,6,6,5.9267,5.9267,0,0,1-6.3,5.8H159.9l.1-11.8Zm11.7,37.1H160.1v-12.5h11.3c5.7,0,8.4,2.5,8.4,6.2C179.8,74.38593,176.4,76.08593,171.7,76.08593Z" data-name="logotype-b" style="fill:#ea0016;fill-rule:evenodd"/><path id="logotype-o-22" d="M231.1,24.18594c-18.4,0-29.2,14.7-29.2,33.3,0,18.7,10.8,33.3,29.2,33.3,18.5,0,29.2-14.6,29.2-33.3C260.3,38.88593,249.6,24.18594,231.1,24.18594Zm0,51.4c-9,0-13.5-8.1-13.5-18.1s4.5-18,13.5-18,13.6,8.1,13.6,18C244.7,67.58593,240.1,75.58593,231.1,75.58593Z" data-name="logotype-o" style="fill:#ea0016;fill-rule:evenodd"/><path id="logotype-s-22" d="M294.2,50.78593l-2.2-.5c-5.4-1.1-9.7-2.5-9.7-6.4,0-4.2,4.1-5.9,7.7-5.9a17.89364,17.89364,0,0,1,13,5.9l9.9-9.8c-4.5-5.1-11.8-10-23.2-10-13.4,0-23.6,7.5-23.6,20,0,11.4,8.2,17,18.2,19.1l2.2.5c8.3,1.7,11.4,3,11.4,7,0,3.8-3.4,6.3-8.6,6.3-6.2,0-11.8-2.7-16.1-8.2l-10.1,10c5.6,6.7,12.7,11.9,26.4,11.9,11.9,0,24.6-6.8,24.6-20.7C314.3,55.48592,303.3,52.68594,294.2,50.78593Z" data-name="logotype-s" style="fill:#ea0016;fill-rule:evenodd"/><path id="logotype-c-22" d="M349.7,75.58593c-7,0-14.3-5.8-14.3-18.5,0-11.3,6.8-17.6,13.9-17.6,5.6,0,8.9,2.6,11.5,7.1l12.8-8.5c-6.4-9.7-14-13.8-24.5-13.8-19.2,0-29.6,14.9-29.6,32.9,0,18.9,11.5,33.7,29.4,33.7,12.6,0,18.6-4.4,25.1-13.8l-12.9-8.7C358.5,72.58593,355.7,75.58593,349.7,75.58593Z" data-name="logotype-c" style="fill:#ea0016;fill-rule:evenodd"/><polygon id="logotype-h-22" points="416.3 25.786 416.3 49.186 397 49.186 397 25.786 380.3 25.786 380.3 89.386 397 89.386 397 64.286 416.3 64.286 416.3 89.386 433 89.386 433 25.786 416.3 25.786" data-name="logotype-h" style="fill:#ea0016;fill-rule:evenodd"/></g><g id="symbol-22" data-name="symbol"><path d="M48.2,9.58593a48.2,48.2,0,1,0,48.2,48.2A48.22579,48.22579,0,0,0,48.2,9.58593Zm0,91.9a43.7,43.7,0,1,1,43.7-43.7A43.7447,43.7447,0,0,1,48.2,101.48592Z" style="fill:#606061"/><path d="M68.1,27.68594H64.8v16.5H31.7v-16.5H28.3a36.06329,36.06329,0,0,0,0,60.2h3.4v-16.5H64.8v16.5h3.3a36.06329,36.06329,0,0,0,0-60.2Zm-41,53.7a31.5717,31.5717,0,0,1,0-47.2Zm37.7-14.6H31.7v-18.1H64.8Zm4.5,14.5v-10h0v-27.1h0v-10a31.65957,31.65957,0,0,1,0,47.1Z" style="fill:#606061"/></g></g></g></g></svg>